<svg xmlns="http://www.w3.org/2000/svg" viewBox="0 0 600 600" width="600" height="600" fill="currentColor">
  <path d="M130 0C58.672245 0 0 58.672245 0 130V470C0 541.32776 58.672245 600 130 600H301.57812C367.83331 600 423.13643 549.36696 430.67188 485H349.43555C343.32179 505.66026 324.7036 520 301.57812 520H130C101.60826 520 80 498.39174 80 470V130C80 101.60826 101.60826 80 130 80H301.57812C324.7036 80 343.32179 94.339739 349.43555 115H430.67188C423.13642 50.633038 367.83331 0 301.57812 0H130z"/>
  <path d="M476.86328 179.99911a40 40 0 0 0-28.28516 11.71484 40 40 0 0 0 0 56.57032l11.71485 11.71484H163.72656a40 40 0 0 0-40 40 40 40 0 0 0 40 40h296.56641l-11.71485 11.71484a40 40 0 0 0 0 56.57032 40 40 0 0 0 56.57032 0l72.79101-72.79102A40 40 0 0 0 600 299.99911a40 40 0 0 0-22.4707-35.9043l-72.38086-72.38086a40 40 0 0 0-28.28516-11.71484z"/>
</svg>